<?xml version="1.0" encoding="iso-8859-1"?>

<svg version="1.1" id="share" xmlns="http://www.w3.org/2000/svg" xmlns:xlink="http://www.w3.org/1999/xlink" x="0px" y="0px"
	  style="enable-background:new 0 0 24 24;" xml:space="preserve" viewBox="0 0 24 24" role="presentation" aria-hidden="true" focusable="false">


<path d="m22.19 8.5h-3.14a.81.81 0 0 0 -.81.8c0 .44.36.8.81.8h2.33v12.31h-18.76v-12.31h3.11c.45 0 .81-.36.81-.8a.81.81 0 0 0 -.81-.8h-3.92a.81.81 0 0 0 -.81.8v13.91c0 .44.36.8.81.8h20.38c.45 0 .81-.36.81-.8v-13.91a.81.81 0 0 0 -.81-.8zm-14.11-3.82c.19 0 .36-.06.51-.18l2.01-1.58.6-.47v13.79c0 .44.36.8.81.8s.81-.36.81-.8v-13.79l.59.47 2.01 1.58a.8.8 0 0 0 .5.18.81.81 0 0 0 .63-.3.79.79 0 0 0 -.13-1.12l-3.92-3.09a.42.42 0 0 0 -.07-.04l-.07-.03-.01-.01-.05-.03a.76.76 0 0 0 -.3-.06.81.81 0 0 0 -.3.06l-.01.01-.06.04-.07.03a.42.42 0 0 0 -.07.04l-3.92 3.09a.79.79 0 0 0 -.13 1.12c.16.19.39.3.63.3z" fill-rule="evenodd"></path></svg>
